<svg id="Capa_1" data-name="Capa 1" xmlns="http://www.w3.org/2000/svg" width="153" height="156" viewBox="0 0 153 156"><defs><style>.cls-1{fill:#fff}.cls-2{opacity:.84}.cls-3{fill:#1d1d1b}.cls-4{mask:url(#mask)}.cls-5{mask:url(#mask-2-2)}.cls-6{mask:url(#mask-3)}</style><mask id="mask" x="101.4" y="141.54" width="9.67" height="14.12" maskUnits="userSpaceOnUse"><g id="mask-2"><path id="path-1" class="cls-1" d="M101.4 155.66h9.66v-14.12h-9.66v14.12z"/></g></mask><mask id="mask-2-2" x="68.5" y="141.89" width="11.28" height="13.77" maskUnits="userSpaceOnUse"><g id="mask-4"><path id="path-3" class="cls-1" d="M68.5 155.66h11.28v-13.77H68.5v13.77z"/></g></mask><mask id="mask-3" x="147.92" y="141.85" width="4.96" height="4.53" maskUnits="userSpaceOnUse"><g id="mask-6"><path id="path-5" class="cls-1" d="M152.88 146.38v-4.53h-4.96v4.53h4.96z"/></g></mask></defs><title>Mesa de trabajo 1</title><g id="Page-1" class="cls-2"><g id="HH-home-"><g id="FOOTER"><g id="Page-1-2" data-name="Page-1"><path id="Fill-1" class="cls-3" d="M37.23 90.91h4.23V40.24h-4.23v50.67z"/><path id="Fill-2" class="cls-3" d="M53.32 44.29v42.58H47.5v4.04h10.65V40.24H47.5v4.05h5.82z"/><path id="Fill-3" class="cls-3" d="M83.74 40.24v50.67h10.65v-4.04h-5.82V44.29h5.82v-4.05H83.74z"/><path id="Fill-4" class="cls-3" d="M100.32 90.91h4.23V40.24h-4.23v50.67z"/><path id="Fill-5" class="cls-3" d="M63.42 67.99h14.94v-4.88H63.42v4.88z"/><path id="Fill-6" class="cls-3" d="M70.89 0l-3.35 2.75-47.99 39.41 2.67 3.31L70.89 5.5l48.66 39.97 2.68-3.31-48-39.41L70.89 0z"/><path id="Fill-7" class="cls-3" d="M32.44 115.42l-8.38 20h2.84l2.39-5.76h8.89l2.41 5.76h2.81l-8.38-20zm4.63 11.66H30.4l3.35-8z"/><g id="Group-35"><path id="Fill-8" class="cls-3" d="M50.88 125.44a10.28 10.28 0 0 0 .82 4.1 10.59 10.59 0 0 0 5.57 5.61 10.34 10.34 0 0 0 6.7.49 10.66 10.66 0 0 0 2.41-1 10.18 10.18 0 0 0 3.69-3.49l-2.19-1.43a7.91 7.91 0 0 1-2.78 2.62 7.73 7.73 0 0 1-6.8.37 7.88 7.88 0 0 1-4.15-4.21 8 8 0 0 1 1.68-8.68 8 8 0 0 1 2.47-1.69 7.73 7.73 0 0 1 6.8.37 7.92 7.92 0 0 1 2.78 2.62l2.19-1.46a10.38 10.38 0 0 0-3.69-3.48 10.41 10.41 0 0 0-9.12-.47 10.58 10.58 0 0 0-5.57 5.61 10.27 10.27 0 0 0-.82 4.09"/><path id="Fill-10" class="cls-3" d="M80.11 115.45v20.02h2.67v-4.01l2.9-3.84 5.91 7.85h3.29l-7.55-10.03 7.5-9.99h-3.27l-8.78 11.65v-11.65h-2.67z"/><path id="Fill-12" class="cls-3" d="M103.72 115.42v20.05h13.26v-2.64h-10.56v-6.07h9.8v-2.63h-9.8v-6.07h10.56v-2.64h-13.26z"/><path id="Fill-14" class="cls-3" d="M127 115.42v20h2.67v-7.39h3.38l5.37 7.39h3.32l-5.4-7.45a6.4 6.4 0 0 0 2.13-.72 6.2 6.2 0 0 0 1.72-1.37 6.53 6.53 0 0 0 1.15-1.9 6.29 6.29 0 0 0-.07-4.72 6.33 6.33 0 0 0-3.35-3.38 6 6 0 0 0-2.43-.5zm9.91 9.74a3.5 3.5 0 0 1-1.42.29h-5.82v-7.39h5.82a3.5 3.5 0 0 1 2.56 1.07 3.6 3.6 0 0 1 .75 1.17 4 4 0 0 1 0 2.89 3.6 3.6 0 0 1-.75 1.17 3.53 3.53 0 0 1-1.14.79z"/><path id="Fill-16" class="cls-3" d="M141.75 141.88h-8.88v13.43h8.88v-1.76h-7.07v-4.07h6.56v-1.76h-6.56v-4.07h7.07v-1.77z"/><g class="cls-4" id="Group-20"><path id="Fill-18" class="cls-3" d="M110 143.66a3.92 3.92 0 0 0-1-1.11 4.56 4.56 0 0 0-1.37-.74 5.12 5.12 0 0 0-1.67-.27 5.66 5.66 0 0 0-1.85.29 4.41 4.41 0 0 0-1.43.79 3.43 3.43 0 0 0-.91 1.2 3.59 3.59 0 0 0-.32 1.53 2.91 2.91 0 0 0 .41 1.61 3.48 3.48 0 0 0 1 1 5.84 5.84 0 0 0 1.44.66l1.58.44q3.27.83 3.27 2.59a1.62 1.62 0 0 1-.24.85 2.42 2.42 0 0 1-.66.7 3.27 3.27 0 0 1-1 .48 4 4 0 0 1-1.19.17 3.58 3.58 0 0 1-2.1-.6 2.78 2.78 0 0 1-.96-1.45l-1.58.33a3.28 3.28 0 0 0 .51 1.39 4.42 4.42 0 0 0 1.06 1.12 4.93 4.93 0 0 0 1.48.75 5.74 5.74 0 0 0 1.77.27 5.58 5.58 0 0 0 1.89-.32 5.16 5.16 0 0 0 1.54-.85 4.08 4.08 0 0 0 1-1.26 3.25 3.25 0 0 0 .38-1.54 3.9 3.9 0 0 0-.18-1.13 3.24 3.24 0 0 0-.69-1.18 5.53 5.53 0 0 0-1.42-1.1 9.37 9.37 0 0 0-2.35-.88q-1-.25-1.57-.47a4.3 4.3 0 0 1-.93-.45 1.25 1.25 0 0 1-.46-.51 1.51 1.51 0 0 1-.12-.62 1.79 1.79 0 0 1 .71-1.46 3.09 3.09 0 0 1 2-.58 3 3 0 0 1 1.94.59 2.64 2.64 0 0 1 1 1.52l1.58-.35a3.72 3.72 0 0 0-.47-1.41"/></g><g class="cls-5" id="Group-23"><path id="Fill-21" class="cls-3" d="M79.78 149.48v-7.59H78v8.28a5.91 5.91 0 0 1-.16.91 5 5 0 0 1-.37 1 3.17 3.17 0 0 1-.68.9 3.42 3.42 0 0 1-1.07.66 4.08 4.08 0 0 1-1.53.26q-3.84 0-3.84-4.41v-7.59H68.5v7.59a6.54 6.54 0 0 0 1.5 4.56 5.39 5.39 0 0 0 4.19 1.6 6 6 0 0 0 2.32-.43 4.88 4.88 0 0 0 1.74-1.22 5.6 5.6 0 0 0 1.13-2 7.71 7.71 0 0 0 .4-2.56"/></g><path id="Fill-24" class="cls-3" d="M46.33 148.6a6.88 6.88 0 0 0-.55-2.74 7.08 7.08 0 0 0-3.73-3.76 7 7 0 0 0-5.46 0 7 7 0 0 0-2.22 1.52 7.26 7.26 0 0 0-1.49 2.24 7.1 7.1 0 0 0 0 5.49 7.24 7.24 0 0 0 1.49 2.24 7 7 0 0 0 2.22 1.52 7 7 0 0 0 5.46 0 7.09 7.09 0 0 0 3.73-3.76 6.88 6.88 0 0 0 .55-2.74m-2.22-2.05a5.17 5.17 0 0 1 .41 2.05 5.24 5.24 0 0 1-.41 2.06 5.37 5.37 0 0 1-1.11 1.68 5.2 5.2 0 0 1-1.65 1.13 5 5 0 0 1-2 .41 5.07 5.07 0 0 1-2-.41 5.16 5.16 0 0 1-1.65-1.13 5.37 5.37 0 0 1-1.11-1.69 5.24 5.24 0 0 1-.41-2.06 5.18 5.18 0 0 1 .41-2.05 5.41 5.41 0 0 1 1.11-1.68 5.28 5.28 0 0 1 1.65-1.14 5 5 0 0 1 2-.42 4.89 4.89 0 0 1 2 .42 5.33 5.33 0 0 1 1.65 1.14 5.41 5.41 0 0 1 1.11 1.68"/><path id="Fill-26" class="cls-3" d="M0 135.47h2.67v-8.71h9.83v8.71h2.67v-20.05H12.5v8.71H2.67v-8.71H0v20.05z"/><path id="Fill-28" class="cls-3" d="M10.16 155.31v-13.42H8.37v5.83H1.79v-5.83H0v13.42h1.79v-5.83h6.58v5.83h1.79z"/><path id="Fill-30" class="cls-3" d="M145.26 142.71h-1.21v-.86h3.46v.86h-1.23v3.67h-1.02v-3.67z"/><g class="cls-6" id="Group-34"><path id="Fill-32" class="cls-3" d="M151.82 144.65v-1.86c-.14.58-.33 1.22-.5 1.76l-.55 1.77h-.79l-.48-1.76c-.15-.53-.3-1.18-.41-1.77 0 .61 0 1.31-.08 1.88l-.08 1.72h-.94l.29-4.53h1.35l.44 1.51c.14.52.28 1.09.38 1.62.13-.52.28-1.12.43-1.63l.48-1.51h1.33l.25 4.53h-1z"/></g></g></g></g></g></g></svg>