<svg id="Capa_1" data-name="Capa 1" xmlns="http://www.w3.org/2000/svg" width="55" height="56" viewBox="0 0 55 56"><defs><style>.cls-1{fill:#fff}</style></defs><title>Mesa de trabajo 1</title><g id="Page-1"><g id="HH-home-"><g id="HEADER"><g id="Page-1-2"><path id="Fill-1" class="cls-1" d="M13.4 32.65h1.53V14.46H13.4v18.19z"/><path id="Fill-2" class="cls-1" d="M19.19 15.9v15.3h-2.1v1.45h3.84V14.46h-3.84v1.44h2.1z"/><path id="Fill-3" class="cls-1" d="M30.14 14.46v18.19h3.84V31.2h-2.1V15.9h2.1v-1.44h-3.84z"/><path id="Fill-4" class="cls-1" d="M36.12 32.65h1.52V14.46h-1.52v18.19z"/><path id="Fill-5" class="cls-1" d="M22.83 24.42h5.38v-1.75h-5.38v1.75z"/><path id="Fill-6" class="cls-1" d="M25.52 0l-1.2.99L7.03 15.14 8 16.33 25.52 1.98l17.52 14.35.96-1.19L26.73.99 25.52 0z"/><path id="Fill-7" class="cls-1" d="M11.68 41.46l-3 7.2h1l.86-2.06h3.24l.87 2.06h1l-3-7.2zm1.67 4.18h-2.43l1.21-2.86z"/><g id="Group-35"><path id="Fill-8" class="cls-1" d="M18.32 45.06a3.68 3.68 0 0 0 .26 1.47 3.8 3.8 0 0 0 2 2 3.73 3.73 0 0 0 2.43.18 3.84 3.84 0 0 0 .87-.35 3.66 3.66 0 0 0 1.33-1.25l-.81-.52a2.85 2.85 0 0 1-1 .92 2.78 2.78 0 0 1-2.43.14 2.83 2.83 0 0 1-1.51-1.55 2.89 2.89 0 0 1 0-2.21A2.83 2.83 0 0 1 21 42.45a2.79 2.79 0 0 1 2.43.14 2.85 2.85 0 0 1 1 .94l.81-.53a3.74 3.74 0 0 0-4.61-1.42 3.8 3.8 0 0 0-2.06 2 3.68 3.68 0 0 0-.3 1.47"/><path id="Fill-10" class="cls-1" d="M28.84 41.47v7.19h.96v-1.44l1.05-1.38 2.12 2.82h1.19l-2.72-3.6 2.69-3.59h-1.17l-3.16 4.19v-4.19h-.96z"/><path id="Fill-12" class="cls-1" d="M37.34 41.46v7.2h4.77v-.94h-3.8v-2.18h3.53v-.95h-3.53v-2.18h3.8v-.95h-4.77z"/><path id="Fill-14" class="cls-1" d="M45.72 41.46v7.2h1V46h1.18l1.93 2.65H51L49.09 46a2.31 2.31 0 0 0 .77-.26 2.23 2.23 0 0 0 .62-.49 2.35 2.35 0 0 0 .41-.69 2.24 2.24 0 0 0-1.21-2.91 2.17 2.17 0 0 0-.87-.18zM49.29 45a1.26 1.26 0 0 1-.51.11h-2.1v-2.7h2.1a1.26 1.26 0 0 1 .92.39 1.3 1.3 0 0 1 .27.42 1.43 1.43 0 0 1 0 1 1.3 1.3 0 0 1-.27.42 1.27 1.27 0 0 1-.41.36z"/><path id="Fill-16" class="cls-1" d="M51.03 50.97h-3.19v4.82h3.19v-.64h-2.55V53.7h2.37v-.64h-2.37V51.6h2.55v-.63z"/><g id="Group-20"><path id="Fill-18" class="cls-1" d="M39.62 51.61a1.41 1.41 0 0 0-.35-.4 1.62 1.62 0 0 0-.49-.27 1.85 1.85 0 0 0-.6-.1 2 2 0 0 0-.66.11 1.62 1.62 0 0 0-.51.28 1.23 1.23 0 0 0-.33.43 1.29 1.29 0 0 0-.11.55 1 1 0 0 0 .15.57 1.25 1.25 0 0 0 .38.37 2.1 2.1 0 0 0 .52.23l.57.16q1.18.3 1.18.93a.58.58 0 0 1-.09.31.87.87 0 0 1-.28.22 1.18 1.18 0 0 1-.36.17 1.46 1.46 0 0 1-.43.06 1.29 1.29 0 0 1-.76-.22 1 1 0 0 1-.4-.53l-.57.11a1.17 1.17 0 0 0 .19.5 1.62 1.62 0 0 0 .38.4 1.77 1.77 0 0 0 .53.27 2.07 2.07 0 0 0 .64.1 2 2 0 0 0 .68-.11 1.86 1.86 0 0 0 .56-.31 1.47 1.47 0 0 0 .37-.45 1.17 1.17 0 0 0 .14-.56 1.4 1.4 0 0 0-.06-.4 1.17 1.17 0 0 0-.25-.42 2 2 0 0 0-.51-.4 3.38 3.38 0 0 0-.81-.32 5.88 5.88 0 0 1-.57-.17 1.55 1.55 0 0 1-.33-.16.45.45 0 0 1-.16-.19.54.54 0 0 1-.11-.22.65.65 0 0 1 .26-.53 1.12 1.12 0 0 1 .71-.21 1.08 1.08 0 0 1 .7.21 1 1 0 0 1 .34.54l.57-.12a1.34 1.34 0 0 0-.17-.51"/></g><g id="Group-23"><path id="Fill-21" class="cls-1" d="M28.72 53.7V51h-.65v3a2.12 2.12 0 0 1-.06.32 1.78 1.78 0 0 1-.13.36 1.14 1.14 0 0 1-.24.32 1.23 1.23 0 0 1-.38.23 1.47 1.47 0 0 1-.55.09q-1.38 0-1.38-1.62V51h-.65v2.73a2.35 2.35 0 0 0 .53 1.62 1.94 1.94 0 0 0 1.51.57 2.18 2.18 0 0 0 .81-.15 1.76 1.76 0 0 0 .64-.45 2 2 0 0 0 .4-.7 2.77 2.77 0 0 0 .15-.92"/></g><path id="Fill-24" class="cls-1" d="M16.67 53.38a2.43 2.43 0 0 0-.2-1A2.55 2.55 0 0 0 15.13 51a2.54 2.54 0 0 0-2.78.54 2.61 2.61 0 0 0-.53.81 2.54 2.54 0 0 0 0 2 2.6 2.6 0 0 0 .53.81 2.54 2.54 0 0 0 2.78.54 2.55 2.55 0 0 0 1.34-1.35 2.43 2.43 0 0 0 .2-1m-.81-.74a1.85 1.85 0 0 1 .15.74 1.88 1.88 0 0 1-.15.74 1.93 1.93 0 0 1-.4.61 1.87 1.87 0 0 1-.59.4 1.81 1.81 0 0 1-.73.15 1.83 1.83 0 0 1-.74-.15 1.85 1.85 0 0 1-.6-.4 1.93 1.93 0 0 1-.4-.61 1.88 1.88 0 0 1-.15-.74 1.85 1.85 0 0 1 .16-.76 1.94 1.94 0 0 1 .4-.6 1.9 1.9 0 0 1 .6-.41 1.79 1.79 0 0 1 .74-.15 1.76 1.76 0 0 1 .73.15 1.92 1.92 0 0 1 .59.41 1.94 1.94 0 0 1 .4.6"/><path id="Fill-26" class="cls-1" d="M0 48.66h.96v-3.12H4.5v3.12h.96v-7.2H4.5v3.13H.96v-3.13H0v7.2z"/><path id="Fill-28" class="cls-1" d="M3.66 55.79v-4.82h-.65v2.09H.64v-2.09H0v4.82h.64V53.7h2.37v2.09h.65z"/><path id="Fill-30" class="cls-1" d="M52.3 51.27h-.44v-.32h1.25v.32h-.45v1.31h-.36v-1.31z"/><g id="Group-34"><path id="Fill-32" class="cls-1" d="M54.66 52v-.67c0 .21-.12.44-.18.63l-.19.63H54l-.17-.63c-.06-.19-.11-.42-.15-.63v1.29h-.34v-1.58h.49l.16.54c0 .19.1.39.14.58 0-.19.1-.4.15-.58l.17-.54H55v1.62h-.36z"/></g></g></g></g></g></g></svg>